<svg xmlns="http://www.w3.org/2000/svg" width="100" height="13" viewBox="0 0 100 13" fill="none">
  <g clip-path="url(#clip0_13_1519)">
    <path d="M70.1668 12.9451H93.5374C94.3861 12.9451 95.2265 12.7778 96.0105 12.4528C96.7946 12.1278 97.507 11.6515 98.1071 11.0509C98.7073 10.4504 99.1833 9.7375 99.5081 8.95288C99.8328 8.16826 100 7.32731 100 6.47804C100.001 5.62785 99.8353 4.78572 99.5112 3.99983C99.1871 3.21394 98.7113 2.49972 98.111 1.89804C97.5108 1.29635 96.7979 0.819011 96.0131 0.493324C95.2283 0.167637 94.387 -1.22533e-06 93.5374 0L70.1668 0C69.3172 -1.22533e-06 68.4759 0.167637 67.6911 0.493324C66.9063 0.819011 66.1934 1.29635 65.5932 1.89804C64.9929 2.49972 64.5171 3.21394 64.193 3.99983C63.8688 4.78572 63.7027 5.62785 63.7042 6.47804C63.7042 8.19321 64.3851 9.83813 65.597 11.0509C66.809 12.2638 68.4528 12.9451 70.1668 12.9451ZM3.69395 12.9634H6.5467V2.53266H10.2407V0H0V2.52534H3.69395V12.9634ZM13.9712 12.9634H16.8239V3.01943H16.8605L20.1339 12.9561H22.3283L25.7114 3.01943H25.7479V12.9561H28.6007V0H24.3033L21.3042 8.45439H21.2676L18.2869 0H13.9712V12.9634ZM32.6019 0.0439189H36.881C37.8772 0.0454511 38.8696 0.168352 39.8361 0.40991C40.7164 0.618872 41.5458 1.00216 42.2756 1.53716C42.9814 2.06824 43.5496 2.76106 43.9324 3.55743C44.3652 4.50357 44.5742 5.53679 44.5432 6.57686C44.563 7.53503 44.3602 8.48471 43.9507 9.35107C43.5694 10.1307 43.0227 10.8176 42.3488 11.364C41.6589 11.9175 40.871 12.3359 40.0263 12.5974C39.1335 12.8811 38.2018 13.0231 37.265 13.0183H32.6019V0.0439189ZM35.4546 10.3649H36.9176C37.5329 10.3691 38.1466 10.3015 38.7463 10.1636C39.2813 10.0549 39.7874 9.83412 40.2311 9.51577C40.6547 9.19502 40.9916 8.77361 41.2113 8.28969C41.4681 7.70432 41.593 7.06956 41.5771 6.43046C41.5879 5.85782 41.4626 5.2908 41.2113 4.77618C40.9832 4.32014 40.6543 3.92211 40.2494 3.61233C39.8287 3.29965 39.3538 3.06761 38.8487 2.92793C38.2915 2.77204 37.7155 2.69444 37.137 2.69735H35.4546V10.3649ZM48.676 0.0439189H53.5038C54.0704 0.0441953 54.6362 0.084555 55.1971 0.164696C55.7292 0.233671 56.2453 0.394663 56.7223 0.640484C57.1678 0.87184 57.5459 1.21483 57.8195 1.63598C58.123 2.1499 58.2692 2.7416 58.2401 3.33784C58.2651 4.00178 58.048 4.65219 57.6293 5.16779C57.2019 5.66318 56.6385 6.02206 56.0091 6.19989V6.22185C56.4141 6.27971 56.8069 6.40333 57.1721 6.58784C57.5093 6.75731 57.813 6.98673 58.0682 7.26492C58.3209 7.5435 58.5161 7.8694 58.6424 8.22382C58.7786 8.5991 58.8467 8.99573 58.8435 9.39499C58.8655 9.99635 58.713 10.5912 58.4047 11.1078C58.1177 11.5575 57.7294 11.9336 57.2709 12.2058C56.7888 12.4954 56.2605 12.6997 55.7092 12.8097C55.1406 12.9317 54.5607 12.993 53.9792 12.9927H48.676V0.0439189ZM51.5288 5.22269H53.5952C53.8143 5.22389 54.0328 5.19932 54.2462 5.14949C54.4503 5.10515 54.6448 5.02458 54.8204 4.9116C54.9918 4.80099 55.1337 4.65025 55.2337 4.47241C55.3409 4.26976 55.3938 4.04281 55.3873 3.81363C55.3991 3.5807 55.3432 3.34935 55.2264 3.14752C55.1129 2.97458 54.9583 2.83248 54.7765 2.73395C54.5727 2.63156 54.3544 2.56119 54.1292 2.52534C53.9062 2.48219 53.6797 2.46014 53.4526 2.45946H51.5142L51.5288 5.22269ZM51.5288 10.5845H54.0889C54.3141 10.5851 54.5386 10.5605 54.7582 10.5113C54.9766 10.4666 55.1841 10.3795 55.369 10.2551C55.5536 10.1332 55.7075 9.97039 55.8189 9.77928C55.939 9.56108 55.9984 9.3146 55.9908 9.0656C56.0005 8.80291 55.9205 8.54473 55.764 8.33361C55.6104 8.14365 55.4118 7.99519 55.1862 7.90174C54.9518 7.80404 54.706 7.73641 54.4547 7.70045C54.2063 7.66515 53.9558 7.64681 53.7049 7.64555H51.5471L51.5288 10.5845Z" fill="url(#paint0_linear_13_1519)"/>
  </g>
  <defs>
    <linearGradient id="paint0_linear_13_1519" x1="0" y1="6.5" x2="100" y2="6.5" gradientUnits="userSpaceOnUse">
      <stop stop-color="#90CEA1"/>
      <stop offset="0.56" stop-color="#3CBEC9"/>
      <stop offset="1" stop-color="#00B3E5"/>
    </linearGradient>
    <clipPath id="clip0_13_1519">
      <rect width="100" height="13" fill="white"/>
    </clipPath>
  </defs>
</svg>